<svg width="23" height="33" fill="none" xmlns="http://www.w3.org/2000/svg"><path fill-rule="evenodd" clip-rule="evenodd" d="M11.29 28.008a1.054 1.054 0 100 2.108 1.054 1.054 0 000-2.108zm-.237 1.053a.236.236 0 01.471 0c0 .259-.471.262-.471 0zM19.648.105H2.93A2.932 2.932 0 000 3.035V30.07A2.932 2.932 0 002.93 33h16.717a2.932 2.932 0 002.93-2.93l.001-27.036A2.933 2.933 0 0019.65.105zm1.64 29.966a1.64 1.64 0 01-1.64 1.64H2.93c-.903 0-1.639-.736-1.639-1.64l.002-27.036c0-.904.735-1.64 1.64-1.64h16.717c.904 0 1.64.736 1.64 1.64V30.07zM18.637 2.82H3.94c-.655 0-1.187.532-1.187 1.187v21.221a1.19 1.19 0 001.187 1.188l14.698-.002a1.19 1.19 0 001.187-1.187V4.007a1.19 1.19 0 00-1.187-1.187zm-.103 22.304H4.043V4.11h14.492v21.014z" fill="#FBA518"/></svg>